name C:\Users\u0101727\Documents\MyRepositories\upper-imu-dc\Results\main_mocap_tracking\Case_6\kinematics.mot
datacolumns 15
datarows 31
range 3.50000000 3.77692308
endheader 
time	ground_thorax_rot_x	ground_thorax_rot_y	ground_thorax_rot_z	clav_prot	clav_elev	scapula_abduction	scapula_elevation	scapula_upward_rot	scapula_winging	plane_elv	shoulder_elv	axial_rot	elbow_flexion	pro_sup	
          3.50000000	          0.31711987	         -8.18466083	        -11.01161427	        -44.01115881	          8.96923217	          2.38816666	         -1.50828694	         85.23897099	        -11.31537197	         35.22008440	         88.51278966	        -10.39084742	          0.02840642	         34.31754851	
          3.50923077	          0.32293175	         -8.18223558	        -11.00587230	        -44.02553700	          8.97903096	          2.35478934	         -1.50398915	         85.23068903	        -11.32860342	         35.27881940	         88.48126381	        -10.42715281	          0.02700024	         34.31769477	
          3.51846154	          0.32773030	         -8.17904103	        -11.00022548	        -44.03830973	          8.99078404	          2.32182612	         -1.49854675	         85.21994003	        -11.34175127	         35.33183461	         88.44921080	        -10.48211208	          0.02609526	         34.31779105	
          3.52769231	          0.33143469	         -8.17522801	        -10.99472477	        -44.04863072	          9.00386973	          2.29061737	         -1.49235270	         85.20638428	        -11.35417714	         35.37822711	         88.41744301	        -10.55791122	          0.02569696	         34.31783866	
          3.53692308	          0.33398247	         -8.17095843	        -10.98943943	        -44.05599177	          9.01726118	          2.26211531	         -1.48608826	         85.18980932	        -11.36533603	         35.41791836	         88.38641862	        -10.65260951	          0.02584511	         34.31783597	
          3.54615385	          0.33533855	         -8.16639987	        -10.98445433	        -44.06017180	          9.02967524	          2.23700497	         -1.48060540	         85.17021867	        -11.37476504	         35.45144711	         88.35622500	        -10.76036279	          0.02658492	         34.31778052	
          3.55538462	          0.33550528	         -8.16171999	        -10.97986533	        -44.06117053	          9.03977836	          2.21582495	         -1.47677146	         85.14790393	        -11.38207885	         35.47969527	         88.32661025	        -10.87237126	          0.02791552	         34.31767436	
          3.56461538	          0.33453040	         -8.15708013	        -10.97577471	        -44.05914864	          9.04638490	          2.19903721	         -1.47532687	         85.12346276	        -11.38697661	         35.50365057	         88.29706179	        -10.97812613	          0.02973093	         34.31753040	
          3.57384615	          0.33251147	         -8.15262561	        -10.97228740	        -44.05442072	          9.04863147	          2.18694395	         -1.47677561	         85.09772886	        -11.38929288	         35.52429385	         88.26692826	        -11.06685888	          0.03177872	         34.31737392	
          3.58307692	          0.32959805	         -8.14846917	        -10.96950803	        -44.04757025	          9.04615895	          2.17929688	         -1.48129765	         85.07157645	        -11.38915231	         35.54266030	         88.23559216	        -11.12963313	          0.03370298	         34.31723837	
          3.59230769	          0.32598686	         -8.14468171	        -10.96753882	        -44.03949082	          9.03920912	          2.17505214	         -1.48871292	         85.04572305	        -11.38705592	         35.55982960	         88.20265096	        -11.16116803	          0.03517127	         34.31715382	
          3.60153846	          0.32190602	         -8.14130282	        -10.96647864	        -44.03118648	          9.02852183	          2.17270751	         -1.49853864	         85.02069003	        -11.38373408	         35.57668020	         88.16801792	        -11.16025757	          0.03595715	         34.31713777	
          3.61076923	          0.31759551	         -8.13835520	        -10.96642226	        -44.02358150	          9.01513855	          2.17071735	         -1.51009880	         84.99685641	        -11.37996593	         35.59369740	         88.13189717	        -11.12937635	          0.03596341	         34.31719537	
          3.62000000	          0.31328752	         -8.13585762	        -10.96745914	        -44.01740208	          9.00018711	          2.16778567	         -1.52265331	         84.97450920	        -11.37644177	         35.61094510	         88.09470079	        -11.07363536	          0.03520773	         34.31732148	
          3.62923077	          0.30918991	         -8.13383358	        -10.96967126	        -44.01315423	          8.98470731	          2.16294570	         -1.53551454	         84.95384326	        -11.37370654	         35.62820728	         88.05696056	        -10.99955858	          0.03379436	         34.31750357	
          3.63846154	          0.30547401	         -8.13231856	        -10.97312975	        -44.01113274	          8.96952965	          2.15555137	         -1.54813432	         84.93493281	        -11.37214138	         35.64516207	         88.01926563	        -10.91404155	          0.03189492	         34.31772363	
          3.64769231	          0.30226711	         -8.13136809	        -10.97789023	        -44.01141270	          8.95520332	          2.14529749	         -1.56015406	         84.91771659	        -11.37194284	         35.66148972	         87.98221944	        -10.82356177	          0.02973483	         34.31795936	
          3.65692308	          0.29964980	         -8.13106584	        -10.98398757	        -44.01382398	          8.94196895	          2.13227592	         -1.57142006	         84.90200578	        -11.37309774	         35.67690893	         87.94640832	        -10.73363705	          0.02758254	         34.31818472	
          3.66615385	          0.29765801	         -8.13152891	        -10.99143049	        -44.01794497	          8.92977532	          2.11698993	         -1.58197020	         84.88749445	        -11.37538069	         35.69120144	         87.91238256	        -10.64858180	          0.02573402	         34.31837069	
          3.67538462	          0.29628884	         -8.13290859	        -11.00019702	        -44.02314011	          8.91832903	          2.10028380	         -1.59200251	         84.87376736	        -11.37838835	         35.70425681	         87.88064229	        -10.57164706	          0.02449113	         34.31848675	
          3.68461538	          0.29550859	         -8.13538766	        -11.01023117	        -44.02863263	          8.90716295	          2.08321257	         -1.60183306	         84.86031465	        -11.38159990	         35.71612285	         87.85161899	        -10.50550306	          0.02413715	         34.31850341	
          3.69384615	          0.29526171	         -8.13917512	        -11.02144081	        -44.03360493	          8.89573003	          2.06687077	         -1.61183696	         84.84656249	        -11.38445897	         35.72705985	         87.82563436	        -10.45276939	          0.02490432	         34.31839705	
          3.70307692	          0.29548066	         -8.14449823	        -11.03369592	        -44.03734236	          8.88353957	          2.05218064	         -1.62235684	         84.83196110	        -11.38648383	         35.73761048	         87.80276921	        -10.41609299	          0.02692004	         34.31815563	
          3.71230769	          0.29609426	         -8.15159608	        -11.04682815	        -44.03934149	          8.87031100	          2.03977449	         -1.63358987	         84.81612154	        -11.38735080	         35.74857871	         87.78269179	        -10.39784652	          0.03017333	         34.31778065	
          3.72153846	          0.29703079	         -8.16072067	        -11.06063349	        -44.03925699	          8.85608936	          2.03011718	         -1.64549472	         84.79889220	        -11.38687589	         35.76083361	         87.76463464	        -10.40000732	          0.03451354	         34.31728806	
          3.73076923	          0.29821637	         -8.17213929	        -11.07487924	        -44.03676947	          8.84130729	          2.02369832	         -1.65774122	         84.78033262	        -11.38495150	         35.77509938	         87.74751707	        -10.42421294	          0.03964016	         34.31670999	
          3.74000000	          0.29957056	         -8.18613024	        -11.08931547	        -44.03150039	          8.82679274	          2.02109373	         -1.66971183	         84.76060514	        -11.38151483	         35.79187306	         87.73011843	        -10.47181925	          0.04511074	         34.31609352	
          3.74923077	          0.30100079	         -8.20297039	        -11.10369016	        -44.02300397	          8.81372388	          2.02287153	         -1.68055166	         84.73981976	        -11.37656087	         35.81147210	         87.71125065	        -10.54391708	          0.05039413	         34.31549563	
          3.75846154	          0.30239650	         -8.22291838	        -11.11776604	        -44.01080157	          8.80354627	          2.02944276	         -1.68924640	         84.71788988	        -11.37017025	         35.83413553	         87.68989329	        -10.64118771	          0.05495057	         34.31497478	
          3.76769231	          0.30362353	         -8.24620022	        -11.13133711	        -43.99437196	          8.79785523	          2.04103336	         -1.69471369	         84.69443704	        -11.36248999	         35.86005702	         87.66530328	        -10.76357309	          0.05831147	         34.31458210	
          3.77692308	          0.30451889	         -8.27300024	        -11.14424383	        -43.97306903	          8.79822983	          2.05784878	         -1.69591121	         84.66877017	        -11.35364094	         35.88931015	         87.63709429	        -10.90981460	          0.06013856	         34.31435435	
